%TF.GenerationSoftware,KiCad,Pcbnew,8.0.6*%
%TF.CreationDate,2024-12-07T22:29:28+01:00*%
%TF.ProjectId,Project 1,50726f6a-6563-4742-9031-2e6b69636164,1*%
%TF.SameCoordinates,Original*%
%TF.FileFunction,Legend,Top*%
%TF.FilePolarity,Positive*%
%FSLAX46Y46*%
G04 Gerber Fmt 4.6, Leading zero omitted, Abs format (unit mm)*
G04 Created by KiCad (PCBNEW 8.0.6) date 2024-12-07 22:29:28*
%MOMM*%
%LPD*%
G01*
G04 APERTURE LIST*
%ADD10C,0.150000*%
%ADD11C,0.120000*%
%ADD12C,1.400000*%
%ADD13O,1.400000X1.400000*%
%ADD14R,1.800000X1.800000*%
%ADD15C,1.800000*%
%ADD16R,1.700000X1.700000*%
%ADD17C,1.700000*%
%ADD18R,2.540000X3.510000*%
G04 APERTURE END LIST*
D10*
X59836779Y-63488866D02*
X60598684Y-63488866D01*
X60217731Y-63869819D02*
X60217731Y-63107914D01*
X57436779Y-63388866D02*
X58198684Y-63388866D01*
X65433333Y-58654819D02*
X65100000Y-58178628D01*
X64861905Y-58654819D02*
X64861905Y-57654819D01*
X64861905Y-57654819D02*
X65242857Y-57654819D01*
X65242857Y-57654819D02*
X65338095Y-57702438D01*
X65338095Y-57702438D02*
X65385714Y-57750057D01*
X65385714Y-57750057D02*
X65433333Y-57845295D01*
X65433333Y-57845295D02*
X65433333Y-57988152D01*
X65433333Y-57988152D02*
X65385714Y-58083390D01*
X65385714Y-58083390D02*
X65338095Y-58131009D01*
X65338095Y-58131009D02*
X65242857Y-58178628D01*
X65242857Y-58178628D02*
X64861905Y-58178628D01*
X66385714Y-58654819D02*
X65814286Y-58654819D01*
X66100000Y-58654819D02*
X66100000Y-57654819D01*
X66100000Y-57654819D02*
X66004762Y-57797676D01*
X66004762Y-57797676D02*
X65909524Y-57892914D01*
X65909524Y-57892914D02*
X65814286Y-57940533D01*
X58256905Y-58494819D02*
X58256905Y-57494819D01*
X58256905Y-57494819D02*
X58495000Y-57494819D01*
X58495000Y-57494819D02*
X58637857Y-57542438D01*
X58637857Y-57542438D02*
X58733095Y-57637676D01*
X58733095Y-57637676D02*
X58780714Y-57732914D01*
X58780714Y-57732914D02*
X58828333Y-57923390D01*
X58828333Y-57923390D02*
X58828333Y-58066247D01*
X58828333Y-58066247D02*
X58780714Y-58256723D01*
X58780714Y-58256723D02*
X58733095Y-58351961D01*
X58733095Y-58351961D02*
X58637857Y-58447200D01*
X58637857Y-58447200D02*
X58495000Y-58494819D01*
X58495000Y-58494819D02*
X58256905Y-58494819D01*
X59780714Y-58494819D02*
X59209286Y-58494819D01*
X59495000Y-58494819D02*
X59495000Y-57494819D01*
X59495000Y-57494819D02*
X59399762Y-57637676D01*
X59399762Y-57637676D02*
X59304524Y-57732914D01*
X59304524Y-57732914D02*
X59209286Y-57780533D01*
X72666667Y-58107200D02*
X72809524Y-58154819D01*
X72809524Y-58154819D02*
X73047619Y-58154819D01*
X73047619Y-58154819D02*
X73142857Y-58107200D01*
X73142857Y-58107200D02*
X73190476Y-58059580D01*
X73190476Y-58059580D02*
X73238095Y-57964342D01*
X73238095Y-57964342D02*
X73238095Y-57869104D01*
X73238095Y-57869104D02*
X73190476Y-57773866D01*
X73190476Y-57773866D02*
X73142857Y-57726247D01*
X73142857Y-57726247D02*
X73047619Y-57678628D01*
X73047619Y-57678628D02*
X72857143Y-57631009D01*
X72857143Y-57631009D02*
X72761905Y-57583390D01*
X72761905Y-57583390D02*
X72714286Y-57535771D01*
X72714286Y-57535771D02*
X72666667Y-57440533D01*
X72666667Y-57440533D02*
X72666667Y-57345295D01*
X72666667Y-57345295D02*
X72714286Y-57250057D01*
X72714286Y-57250057D02*
X72761905Y-57202438D01*
X72761905Y-57202438D02*
X72857143Y-57154819D01*
X72857143Y-57154819D02*
X73095238Y-57154819D01*
X73095238Y-57154819D02*
X73238095Y-57202438D01*
X73571429Y-57154819D02*
X73809524Y-58154819D01*
X73809524Y-58154819D02*
X74000000Y-57440533D01*
X74000000Y-57440533D02*
X74190476Y-58154819D01*
X74190476Y-58154819D02*
X74428572Y-57154819D01*
X75333333Y-58154819D02*
X74761905Y-58154819D01*
X75047619Y-58154819D02*
X75047619Y-57154819D01*
X75047619Y-57154819D02*
X74952381Y-57297676D01*
X74952381Y-57297676D02*
X74857143Y-57392914D01*
X74857143Y-57392914D02*
X74761905Y-57440533D01*
X92547618Y-71329009D02*
X92690475Y-71376628D01*
X92690475Y-71376628D02*
X92738094Y-71424247D01*
X92738094Y-71424247D02*
X92785713Y-71519485D01*
X92785713Y-71519485D02*
X92785713Y-71662342D01*
X92785713Y-71662342D02*
X92738094Y-71757580D01*
X92738094Y-71757580D02*
X92690475Y-71805200D01*
X92690475Y-71805200D02*
X92595237Y-71852819D01*
X92595237Y-71852819D02*
X92214285Y-71852819D01*
X92214285Y-71852819D02*
X92214285Y-70852819D01*
X92214285Y-70852819D02*
X92547618Y-70852819D01*
X92547618Y-70852819D02*
X92642856Y-70900438D01*
X92642856Y-70900438D02*
X92690475Y-70948057D01*
X92690475Y-70948057D02*
X92738094Y-71043295D01*
X92738094Y-71043295D02*
X92738094Y-71138533D01*
X92738094Y-71138533D02*
X92690475Y-71233771D01*
X92690475Y-71233771D02*
X92642856Y-71281390D01*
X92642856Y-71281390D02*
X92547618Y-71329009D01*
X92547618Y-71329009D02*
X92214285Y-71329009D01*
X93642856Y-71852819D02*
X93642856Y-71329009D01*
X93642856Y-71329009D02*
X93595237Y-71233771D01*
X93595237Y-71233771D02*
X93499999Y-71186152D01*
X93499999Y-71186152D02*
X93309523Y-71186152D01*
X93309523Y-71186152D02*
X93214285Y-71233771D01*
X93642856Y-71805200D02*
X93547618Y-71852819D01*
X93547618Y-71852819D02*
X93309523Y-71852819D01*
X93309523Y-71852819D02*
X93214285Y-71805200D01*
X93214285Y-71805200D02*
X93166666Y-71709961D01*
X93166666Y-71709961D02*
X93166666Y-71614723D01*
X93166666Y-71614723D02*
X93214285Y-71519485D01*
X93214285Y-71519485D02*
X93309523Y-71471866D01*
X93309523Y-71471866D02*
X93547618Y-71471866D01*
X93547618Y-71471866D02*
X93642856Y-71424247D01*
X93976190Y-71186152D02*
X94357142Y-71186152D01*
X94119047Y-70852819D02*
X94119047Y-71709961D01*
X94119047Y-71709961D02*
X94166666Y-71805200D01*
X94166666Y-71805200D02*
X94261904Y-71852819D01*
X94261904Y-71852819D02*
X94357142Y-71852819D01*
X94452381Y-71948057D02*
X95214285Y-71948057D01*
X95404762Y-70948057D02*
X95452381Y-70900438D01*
X95452381Y-70900438D02*
X95547619Y-70852819D01*
X95547619Y-70852819D02*
X95785714Y-70852819D01*
X95785714Y-70852819D02*
X95880952Y-70900438D01*
X95880952Y-70900438D02*
X95928571Y-70948057D01*
X95928571Y-70948057D02*
X95976190Y-71043295D01*
X95976190Y-71043295D02*
X95976190Y-71138533D01*
X95976190Y-71138533D02*
X95928571Y-71281390D01*
X95928571Y-71281390D02*
X95357143Y-71852819D01*
X95357143Y-71852819D02*
X95976190Y-71852819D01*
X96595238Y-70852819D02*
X96690476Y-70852819D01*
X96690476Y-70852819D02*
X96785714Y-70900438D01*
X96785714Y-70900438D02*
X96833333Y-70948057D01*
X96833333Y-70948057D02*
X96880952Y-71043295D01*
X96880952Y-71043295D02*
X96928571Y-71233771D01*
X96928571Y-71233771D02*
X96928571Y-71471866D01*
X96928571Y-71471866D02*
X96880952Y-71662342D01*
X96880952Y-71662342D02*
X96833333Y-71757580D01*
X96833333Y-71757580D02*
X96785714Y-71805200D01*
X96785714Y-71805200D02*
X96690476Y-71852819D01*
X96690476Y-71852819D02*
X96595238Y-71852819D01*
X96595238Y-71852819D02*
X96500000Y-71805200D01*
X96500000Y-71805200D02*
X96452381Y-71757580D01*
X96452381Y-71757580D02*
X96404762Y-71662342D01*
X96404762Y-71662342D02*
X96357143Y-71471866D01*
X96357143Y-71471866D02*
X96357143Y-71233771D01*
X96357143Y-71233771D02*
X96404762Y-71043295D01*
X96404762Y-71043295D02*
X96452381Y-70948057D01*
X96452381Y-70948057D02*
X96500000Y-70900438D01*
X96500000Y-70900438D02*
X96595238Y-70852819D01*
X97261905Y-70852819D02*
X97880952Y-70852819D01*
X97880952Y-70852819D02*
X97547619Y-71233771D01*
X97547619Y-71233771D02*
X97690476Y-71233771D01*
X97690476Y-71233771D02*
X97785714Y-71281390D01*
X97785714Y-71281390D02*
X97833333Y-71329009D01*
X97833333Y-71329009D02*
X97880952Y-71424247D01*
X97880952Y-71424247D02*
X97880952Y-71662342D01*
X97880952Y-71662342D02*
X97833333Y-71757580D01*
X97833333Y-71757580D02*
X97785714Y-71805200D01*
X97785714Y-71805200D02*
X97690476Y-71852819D01*
X97690476Y-71852819D02*
X97404762Y-71852819D01*
X97404762Y-71852819D02*
X97309524Y-71805200D01*
X97309524Y-71805200D02*
X97261905Y-71757580D01*
X98261905Y-70948057D02*
X98309524Y-70900438D01*
X98309524Y-70900438D02*
X98404762Y-70852819D01*
X98404762Y-70852819D02*
X98642857Y-70852819D01*
X98642857Y-70852819D02*
X98738095Y-70900438D01*
X98738095Y-70900438D02*
X98785714Y-70948057D01*
X98785714Y-70948057D02*
X98833333Y-71043295D01*
X98833333Y-71043295D02*
X98833333Y-71138533D01*
X98833333Y-71138533D02*
X98785714Y-71281390D01*
X98785714Y-71281390D02*
X98214286Y-71852819D01*
X98214286Y-71852819D02*
X98833333Y-71852819D01*
D11*
%TO.C,R1*%
X67080000Y-60080000D02*
X67080000Y-63920000D01*
X67080000Y-63920000D02*
X68920000Y-63920000D01*
X68000000Y-59130000D02*
X68000000Y-60080000D01*
X68000000Y-64870000D02*
X68000000Y-63920000D01*
X68920000Y-60080000D02*
X67080000Y-60080000D01*
X68920000Y-63920000D02*
X68920000Y-60080000D01*
%TO.C,D1*%
X56435000Y-60455000D02*
X56435000Y-63545000D01*
X56435000Y-60455170D02*
G75*
G02*
X61985000Y-62000462I2560000J-1544830D01*
G01*
X61985000Y-61999538D02*
G75*
G02*
X56435000Y-63544830I-2990000J-462D01*
G01*
X61495000Y-62000000D02*
G75*
G02*
X56495000Y-62000000I-2500000J0D01*
G01*
X56495000Y-62000000D02*
G75*
G02*
X61495000Y-62000000I2500000J0D01*
G01*
%TO.C,SW1*%
X70880000Y-63150000D02*
X70880000Y-60950000D01*
X71350000Y-65120000D02*
X76550000Y-65120000D01*
X71950000Y-58880000D02*
X76350000Y-58880000D01*
X77120000Y-60950000D02*
X77120000Y-63150000D01*
X75414214Y-62000000D02*
G75*
G02*
X72585786Y-62000000I-1414214J0D01*
G01*
X72585786Y-62000000D02*
G75*
G02*
X75414214Y-62000000I1414214J0D01*
G01*
%TO.C,BT1*%
X81190000Y-58390000D02*
X84808000Y-58390000D01*
X81190000Y-60100000D02*
X81190000Y-58390000D01*
X81190000Y-63900000D02*
X81190000Y-65610000D01*
X84808000Y-65610000D02*
X81190000Y-65610000D01*
X87652700Y-53890000D02*
X91640000Y-53890000D01*
X93840000Y-56090000D02*
X91640000Y-53890000D01*
X93840000Y-56090000D02*
X97160000Y-56090000D01*
X97160000Y-56090000D02*
X99360000Y-53890000D01*
X99360000Y-53890000D02*
X103347300Y-53890000D01*
X103347300Y-70110000D02*
X87652700Y-70110000D01*
X106192000Y-58390000D02*
X109810000Y-58390000D01*
X109810000Y-60100000D02*
X109810000Y-58390000D01*
X109810000Y-63900000D02*
X109810000Y-65610000D01*
X109810000Y-65610000D02*
X106192000Y-65610000D01*
X84808000Y-58390000D02*
G75*
G02*
X87654629Y-53888211I10692020J-3610012D01*
G01*
X87654629Y-70111789D02*
G75*
G02*
X84808000Y-65610000I7845371J8111789D01*
G01*
X103345371Y-53888211D02*
G75*
G02*
X106192000Y-58390000I-7845366J-8111785D01*
G01*
X106192000Y-65610000D02*
G75*
G02*
X103345372Y-70111790I-10692020J3610010D01*
G01*
%TD*%
%LPC*%
D12*
%TO.C,R1*%
X68000000Y-65810000D03*
D13*
X68000000Y-58190000D03*
%TD*%
D14*
%TO.C,D1*%
X57725000Y-62000000D03*
D15*
X60265000Y-62000000D03*
%TD*%
D16*
%TO.C,SW1*%
X70750000Y-59750000D03*
D17*
X77250000Y-59750000D03*
X70750000Y-64250000D03*
X77250000Y-64250000D03*
%TD*%
D18*
%TO.C,BT1*%
X110180000Y-62000000D03*
X80820000Y-62000000D03*
%TD*%
%LPD*%
M02*
